Coordinates
version=1
nRows=65
nColumns=12
inDegrees=yes

Units are S.I. units (second, meters, Newtons, ...)
Angles are in degrees

endheader
time	SC_y	SC_z	SC_x	AC_y	AC_z	AC_x	GH_y	GH_z	GH_yy	EL_x	PS_y
       0.0              -12.79          33.04          50.23          69.68         -18.28         -6.725          173.5          55.31          19.62          33.76          14.22
   0.03774              -12.79          33.04          50.23          69.68         -18.28         -6.726          173.5           55.3          19.61          33.76          14.22
   0.07547              -12.79          33.03          50.23          69.67         -18.28         -6.728          173.5          55.29          19.61          33.76          14.22
    0.1132              -12.79          33.03          50.22          69.67         -18.27         -6.729          173.5          55.28           19.6          33.75          14.23
    0.1509              -12.78          33.03          50.22          69.66         -18.27         -6.731          173.5          55.26          19.59          33.75          14.23
    0.1887              -12.78          33.02          50.21          69.65         -18.27         -6.733          173.5          55.25          19.58          33.74          14.23
    0.2264              -12.78          33.02          50.21          69.64         -18.27         -6.735          173.5          55.24          19.58          33.74          14.24
    0.2641              -12.78          33.02           50.2          69.64         -18.27         -6.737          173.5          55.23          19.57          33.73          14.24
    0.3019              -12.78          33.01           50.2          69.63         -18.26         -6.739          173.5          55.21          19.56          33.73          14.24
    0.3396              -12.78          33.01          50.19          69.62         -18.26         -6.742          173.5          55.19          19.55          33.72          14.25
    0.3774              -12.78          33.01          50.19          69.61         -18.26         -6.744          173.4          55.18          19.54          33.72          14.25
    0.4151              -12.78           33.0          50.18           69.6         -18.25         -6.747          173.4          55.16          19.52          33.71          14.26
    0.4528              -12.78           33.0          50.17          69.58         -18.25          -6.75          173.4          55.14          19.51           33.7          14.26
    0.4906              -12.78          32.99          50.17          69.57         -18.24         -6.753          173.4          55.12           19.5          33.69          14.27
    0.5283              -12.78          32.99          50.16          69.56         -18.24         -6.757          173.4          55.09          19.48          33.68          14.27
     0.566              -12.78          32.98          50.15          69.54         -18.24         -6.761          173.4          55.07          19.47          33.67          14.28
    0.6038              -12.78          32.97          50.14          69.53         -18.23         -6.765          173.4          55.04          19.45          33.66          14.29
    0.6415              -12.78          32.96          50.13          69.51         -18.22          -6.77          173.4          55.01          19.43          33.65          14.29
    0.6792              -12.78          32.96          50.11          69.49         -18.22         -6.775          173.3          54.98          19.41          33.64           14.3
     0.717              -12.78          32.95           50.1          69.47         -18.21          -6.78          173.3          54.94          19.39          33.63          14.31
    0.7547              -12.78          32.94          50.09          69.44          -18.2         -6.786          173.3          54.91          19.36          33.61          14.32
    0.7924              -12.77          32.93          50.07          69.42          -18.2         -6.793          173.3          54.86          19.34           33.6          14.33
    0.8302              -12.77          32.92          50.05          69.39         -18.19           -6.8          173.3          54.81          19.31          33.58          14.34
    0.8679              -12.77           32.9          50.04          69.36         -18.18         -6.808          173.2          54.76          19.27          33.56          14.35
    0.9056              -12.77          32.89          50.01          69.32         -18.17         -6.817          173.2           54.7          19.24          33.54          14.37
    0.9434              -12.77          32.87          49.99          69.29         -18.15         -6.827          173.2          54.64           19.2          33.51          14.39
    0.9811              -12.77          32.85          49.96          69.24         -18.14         -6.838          173.1          54.57          19.15          33.48           14.4
     1.019              -12.76          32.83          49.93          69.19         -18.12         -6.851          173.1          54.48           19.1          33.45          14.42
     1.057              -12.76          32.81           49.9          69.14         -18.11         -6.865          173.0          54.39          19.04          33.42          14.45
     1.094              -12.76          32.78          49.86          69.08         -18.09         -6.881          173.0          54.28          18.97          33.38          14.47
     1.132              -12.76          32.75          49.82           69.0         -18.06           -6.9          172.9          54.16           18.9          33.33           14.5
      1.17              -12.75          32.72          49.77          68.92         -18.04         -6.921          172.8          54.03          18.81          33.28          14.54
     1.208              -12.75          32.68          49.71          68.83         -18.01         -6.945          172.8          53.87          18.71          33.22          14.58
     1.245              -12.74          32.64          49.64          68.72         -17.97         -6.974          172.7          53.68          18.59          33.15          14.62
     1.283              -12.74          32.58          49.56          68.59         -17.93         -7.007          172.5          53.46          18.46          33.06          14.68
     1.321              -12.73          32.52          49.47          68.44         -17.88         -7.046          172.4          53.21          18.29          32.97          14.74
     1.358              -12.72          32.44          49.36          68.25         -17.82         -7.093          172.3           52.9           18.1          32.85          14.82
     1.396              -12.71          32.35          49.22          68.04         -17.75         -7.149          172.1          52.54          17.87          32.71          14.91
     1.434               -12.7          32.24          49.06          67.78         -17.67         -7.216          171.8           52.1          17.59          32.54          15.02
     1.472              -12.69          32.11          48.87          67.46         -17.57         -7.299          171.6          51.56          17.25          32.34          15.15
     1.509              -12.67          31.95          48.62          67.06         -17.44         -7.401          171.2           50.9          16.83          32.09          15.31
     1.547              -12.65          31.74          48.32          66.57         -17.28         -7.528          170.8          50.07          16.31          31.77          15.52
     1.585              -12.62          31.48          47.94          65.95         -17.08         -7.688          170.2          49.02          15.65          31.37          15.78
     1.623              -12.59          31.15          47.46          65.16         -16.83         -7.892          169.5           47.7          14.82          30.87          16.11
      1.66              -12.55          30.73          46.84          64.15          -16.5         -8.152          168.7           46.0          13.74          30.22          16.53
     1.698              -12.49          30.19          46.04          62.85         -16.09         -8.486          167.5          43.82          12.37          29.39          17.07
     1.736              -12.42          29.51          45.02          61.19         -15.56         -8.913          166.1          41.03          10.61          28.33          17.76
     1.774              -12.33          28.64          43.75          59.11         -14.89          -9.45          164.3          37.53          8.401           27.0          18.63
     1.811              -12.22          27.58          42.19          56.57         -14.08          -10.1          162.0          33.27          5.709          25.38          19.69
     1.849              -12.09          26.36          40.38          53.63         -13.13         -10.86          159.5          28.32          2.588          23.49          20.92
     1.887              -11.95          25.03          38.43          50.45         -12.11         -11.68          156.7          22.97        -0.7909          21.46          22.25
     1.924              -11.81          23.71          36.48          47.26         -11.09         -12.51          153.9          17.61          -4.17          19.42          23.58
     1.962              -11.69          22.48          34.67          44.32         -10.15         -13.26          151.3          12.67         -7.291          17.54          24.81
       2.0              -11.58          21.43          33.11          41.78         -9.332         -13.92          149.1          8.401         -9.983          15.91          25.87
     2.038              -11.49          20.56          31.84           39.7         -8.664         -14.45          147.3            4.9         -12.19          14.58          26.74
     2.075              -11.42          19.87          30.82          38.05         -8.133         -14.88          145.8          2.116         -13.95          13.52          27.43
     2.113              -11.36          19.33          30.02          36.75         -7.717         -15.22          144.7       -0.06404         -15.33          12.69          27.97
     2.151              -11.32          18.91           29.4          35.74         -7.393         -15.48          143.8         -1.763          -16.4          12.04          28.39
     2.189              -11.28          18.58          28.92          34.95          -7.14         -15.68          143.1          -3.09         -17.23          11.54          28.72
     2.226              -11.25          18.33          28.54          34.33          -6.94         -15.84          142.5         -4.134         -17.89          11.14          28.98
     2.264              -11.23          18.12          28.24          33.84         -6.782         -15.97          142.1         -4.962         -18.42          10.83          29.19
     2.302              -11.22          17.96          27.99          33.44         -6.656         -16.07          141.8         -5.627         -18.84          10.57          29.35
      2.34               -11.2          17.82           27.8          33.12         -6.553         -16.15          141.5         -6.165         -19.18          10.37          29.49
     2.377              -11.19          17.71          27.64          32.86         -6.469         -16.22          141.3         -6.606         -19.45           10.2           29.6
     2.415              -11.18          17.62           27.5          32.64         -6.399         -16.28          141.1          -6.97         -19.68          10.06          29.69
